<svg xmlns="http://www.w3.org/2000/svg" width="1200" height="680" viewBox="0 0 1200 680">
<rect width="100%" height="100%" fill="#ffffff"/>
<style>
.title{font-family:Arial,Helvetica,sans-serif;font-size:30px;font-weight:700;fill:#0f172a}
.subtitle{font-family:Arial,Helvetica,sans-serif;font-size:16px;fill:#475569}
.label{font-family:Arial,Helvetica,sans-serif;font-size:15px;fill:#334155}
.small{font-family:Arial,Helvetica,sans-serif;font-size:13px;fill:#64748b}
.value{font-family:Arial,Helvetica,sans-serif;font-size:15px;font-weight:700;fill:#0f172a}
.kpi{font-family:Arial,Helvetica,sans-serif;font-size:34px;font-weight:700;fill:#0f172a}
</style>
<text x="48" y="52" class="title">Historical 30-Day Readmission Rate</text>
<text x="48" y="82" class="subtitle">NHN engagement packet trend shows sustained annual increases.</text>
<line x1="110" y1="565.0" x2="1105" y2="565.0" stroke="#f1f5f9" stroke-width="1"/>
<text x="96" y="570.0" text-anchor="end" class="small">12.2%</text>
<line x1="110" y1="456.2" x2="1105" y2="456.2" stroke="#f1f5f9" stroke-width="1"/>
<text x="96" y="461.2" text-anchor="end" class="small">14.2%</text>
<line x1="110" y1="347.5" x2="1105" y2="347.5" stroke="#f1f5f9" stroke-width="1"/>
<text x="96" y="352.5" text-anchor="end" class="small">16.3%</text>
<line x1="110" y1="238.7" x2="1105" y2="238.7" stroke="#f1f5f9" stroke-width="1"/>
<text x="96" y="243.7" text-anchor="end" class="small">18.4%</text>
<line x1="110" y1="130.0" x2="1105" y2="130.0" stroke="#f1f5f9" stroke-width="1"/>
<text x="96" y="135.0" text-anchor="end" class="small">20.4%</text>
<polyline points="110.0,458.9 441.7,374.0 773.3,315.7 1105.0,236.1" fill="none" stroke="#2563eb" stroke-width="5" stroke-linecap="round" stroke-linejoin="round"/>
<circle cx="110.0" cy="458.9" r="7" fill="#0f766e" stroke="#ffffff" stroke-width="3"/>
<text x="110.0" y="442.9" text-anchor="middle" class="value">14.2%</text>
<text x="110.0" y="597" text-anchor="middle" class="label">2022</text>
<circle cx="441.7" cy="374.0" r="7" fill="#0f766e" stroke="#ffffff" stroke-width="3"/>
<text x="441.7" y="358.0" text-anchor="middle" class="value">15.8%</text>
<text x="441.7" y="597" text-anchor="middle" class="label">2023</text>
<circle cx="773.3" cy="315.7" r="7" fill="#0f766e" stroke="#ffffff" stroke-width="3"/>
<text x="773.3" y="299.7" text-anchor="middle" class="value">16.9%</text>
<text x="773.3" y="597" text-anchor="middle" class="label">2024</text>
<circle cx="1105.0" cy="236.1" r="7" fill="#0f766e" stroke="#ffffff" stroke-width="3"/>
<text x="1105.0" y="220.1" text-anchor="middle" class="value">18.4%</text>
<text x="1105.0" y="597" text-anchor="middle" class="label">2025</text>
<line x1="110" y1="565" x2="1105" y2="565" stroke="#334155" stroke-width="1.5"/>
<text x="48" y="652" class="small">Source: NHN engagement packet historical trend.</text>
</svg>
